<?xml version="1.0" standalone="no"?>
<!DOCTYPE svg PUBLIC "-//W3C//DTD SVG 1.1//EN" "http://www.w3.org/Graphics/SVG/1.1/DTD/svg11.dtd" >
<svg xmlns="http://www.w3.org/2000/svg">
<metadata>
This is a custom SVG webfont generated by Font Squirrel.
Copyright   : Copyright 20072009 by INDE Andreas Kalpakidis All rights reserved
Designer    : Fontain Font Foundry staff
Foundry     : INDE Andreas Kalpakidis
</metadata>
<defs>
<font id="adventBold2" horiz-adv-x="970" >
<font-face units-per-em="2048" ascent="1462" descent="-586" />
<missing-glyph horiz-adv-x="493" />
<glyph unicode=" "  horiz-adv-x="493" />
<glyph unicode="&#x09;" horiz-adv-x="493" />
<glyph unicode="&#xa0;" horiz-adv-x="493" />
<glyph unicode="!" horiz-adv-x="528" d="M164 1335q0 119 98 119q104 0 105 -117l-35 -1091h-135zM174 90q0 39 26.5 65.5t63.5 26.5q39 0 65.5 -26.5t26.5 -65.5q0 -37 -26.5 -63.5t-65.5 -26.5q-37 0 -63.5 26.5t-26.5 63.5z" />
<glyph unicode="&#x22;" horiz-adv-x="671" d="M104 1427q0 49 42 71t84 1.5t42 -72.5l-28 -378h-111zM399 1427q0 49 42 71t84 1.5t42 -72.5l-28 -378h-111z" />
<glyph unicode="#" horiz-adv-x="1368" d="M121 358v177h213l57 237h-270v189h315l109 473h180l-111 -473h244l111 473h190l-110 -473h194v-189h-239l-56 -237h295v-177h-338l-84 -358h-188l80 358h-242l-82 -358h-180l84 358h-172zM514 535h242l57 237h-244z" />
<glyph unicode="$" horiz-adv-x="1138" d="M84 365l199 22q6 -76 57 -135t135 -78v547q-84 33 -135 59.5t-108.5 70.5t-85 106.5t-27.5 142.5q0 123 92 221t264 125v227h187v-223q113 -8 219 -57l-9 -29q-10 -27 -25.5 -72t-25.5 -75q-80 31 -159 43v-414q86 -37 145 -71t121.5 -86t95.5 -127t33 -167 q0 -166 -97.5 -277.5t-297.5 -133.5v-217h-187v219q-182 23 -284.5 134.5t-106.5 244.5zM319 1085q2 -90 156 -157v325q-162 -39 -156 -168zM662 172q88 20 139 75.5t51 131.5q0 90 -50 149.5t-140 106.5v-463z" />
<glyph unicode="%" horiz-adv-x="1445" d="M96 121l1114 1401l146 -117l-1125 -1405zM115 1194q0 123 86 209t208.5 86t209 -86t86.5 -209t-86.5 -209t-209 -86t-208.5 86t-86 209zM297 1194q0 -45 31.5 -80t81.5 -35q51 0 82.5 35t31.5 80t-31.5 80t-82.5 35q-49 0 -81 -35t-32 -80zM752 272.5q0 122.5 86 208.5 t208.5 86t208.5 -86t86 -208.5t-86 -209t-208.5 -86.5t-208.5 86.5t-86 209zM934 272q0 -45 30.5 -78.5t82 -33.5t82 33.5t30.5 78.5t-30.5 79t-82 34t-82 -34t-30.5 -79z" />
<glyph unicode="&#x26;" horiz-adv-x="1187" d="M100 418q8 82 41 152.5t73 116.5t93 85t90 57.5t76 32.5q-68 23 -115 96.5t-49 165.5q-6 184 153 277.5t345 30.5l-107 -162q-66 25 -130 -13t-68 -112q-8 -96 60.5 -144.5t127.5 -37.5l35 4v262l186 18v-256l150 33l41 -186l-191 -39v-455q0 -174 136 -219l-33 -148 q-170 18 -246 142q-92 -141 -305 -142q-184 0 -281.5 130.5t-81.5 310.5zM283 420q-14 -106 39 -180t159 -74q113 0 178.5 88t65.5 201v303q-80 -18 -141.5 -40t-132 -61t-114.5 -99t-54 -138z" />
<glyph unicode="'" horiz-adv-x="360" d="M96 1427q0 49 42 71t84 1.5t42 -72.5l-28 -221h-111z" />
<glyph unicode="(" horiz-adv-x="536" d="M150 145v1139q0 156 55 238t178 151l86 -143q-135 -57 -135 -266v-1096q0 -70 9 -118t33.5 -77.5t41 -42t53.5 -34.5l-86 -136q-125 72 -180 150.5t-55 234.5z" />
<glyph unicode=")" horiz-adv-x="536" d="M66 -104q49 29 70.5 47t43 75.5t21.5 149.5v1096q0 209 -133 266l86 143q123 -70 178 -151.5t55 -237.5v-1139q0 -156 -55.5 -234.5t-179.5 -150.5z" />
<glyph unicode="*" horiz-adv-x="778" d="M61 1149l64 172l205 -119l-43 232h196l-45 -232l203 121l74 -176l-240 -41l174 -164l-166 -115l-98 228l-98 -228l-164 117l170 164z" />
<glyph unicode="+" horiz-adv-x="835" d="M90 666v180h234v270h188v-270h233v-180h-233v-246h-188v246h-234z" />
<glyph unicode="," horiz-adv-x="432" d="M55 -113q98 55 142 107l-23 6q-53 31 -53 90q2 41 29.5 67.5t70.5 24.5t66.5 -37.5t23.5 -72.5q2 -123 -135 -244z" />
<glyph unicode="-" d="M158 666v180h655v-180h-655z" />
<glyph unicode="." horiz-adv-x="423" d="M121 90q0 39 27.5 65.5t64.5 26.5t63.5 -26.5t26.5 -65.5q0 -37 -26.5 -63.5t-63.5 -26.5t-64.5 26.5t-27.5 63.5z" />
<glyph unicode="/" horiz-adv-x="972" d="M53 -233l664 1906h201l-666 -1906h-199z" />
<glyph unicode="0" horiz-adv-x="1114" d="M127 379v659q0 211 115.5 319.5t318.5 108.5t314.5 -114.5t111.5 -315.5v-657q0 -207 -126 -304.5t-302 -97.5t-304 97.5t-128 304.5zM313 406q0 -115 64.5 -178.5t179.5 -63.5q111 0 177.5 64.5t66.5 179.5v587q0 135 -56.5 205t-187.5 70t-187.5 -68.5t-56.5 -204.5 v-591z" />
<glyph unicode="1" horiz-adv-x="651" d="M35 1296q14 2 38.5 7.5t85 39t103.5 91.5h187v-1434h-189l2 1182q-27 -16 -71 -29.5t-74 -17.5l-31 -5z" />
<glyph unicode="2" horiz-adv-x="923" d="M74 0v172l487 725q100 168 55 271.5t-170 103.5q-63 0 -112 -43t-62 -105l-168 84q37 106 131.5 176t223.5 70q152 0 251 -91t107 -229.5t-90 -302.5l-436 -659h532v-172h-749z" />
<glyph unicode="3" horiz-adv-x="929" d="M61 170l123 125q35 -61 99.5 -99t138.5 -38q113 0 182.5 74.5t69.5 179.5q0 115 -84 181t-217 73h-226l388 581h-383v187h589v-183l-270 -405l8 -2q154 -18 267.5 -138t113.5 -294q0 -182 -127 -309.5t-309 -127.5q-111 0 -207.5 52.5t-155.5 142.5z" />
<glyph unicode="4" horiz-adv-x="1058" d="M23 666l395 768h190l-280 -588h340v588h186v-588h143l-39 -180h-104v-666h-186v666h-645z" />
<glyph unicode="5" horiz-adv-x="942" d="M74 170l123 127q98 -137 239 -137q119 0 184.5 73.5t65.5 178.5q0 115 -85 184.5t-220 69.5h-250l82 768h545v-187h-373l-41 -401h92q182 0 309 -127t127 -307q0 -182 -127 -309.5t-309 -127.5q-111 0 -207 52.5t-155 142.5z" />
<glyph unicode="6" horiz-adv-x="1044" d="M121 412v532q0 82 24.5 161t79 155.5t156.5 125t240 48.5h71v-187h-63q-322 0 -322 -336v-157q37 39 108.5 65.5t139.5 26.5q182 0 309 -127t127 -307q0 -182 -127 -309.5t-309 -127.5q-180 0 -307 127.5t-127 309.5zM305 412q0 -104 73 -178t177 -74t177 73.5t73 178 t-73 176t-177 71.5q-102 0 -175 -68.5t-75 -168.5v-10z" />
<glyph unicode="7" horiz-adv-x="923" d="M68 0l614 1247h-598v187h807v-187l-617 -1247h-206z" />
<glyph unicode="8" horiz-adv-x="1038" d="M82 412q0 125 63.5 227t169.5 158q-154 104 -153 295q0 150 104.5 255t253.5 105q152 0 256.5 -105.5t104.5 -254.5q0 -193 -158 -297q104 -57 167.5 -158.5t63.5 -224.5q0 -182 -127 -309.5t-309 -127.5t-309 127.5t-127 309.5zM268 412q0 -104 73 -177t177.5 -73 t177 72.5t72.5 177t-71.5 177.5t-186.5 75q-100 -2 -171 -76t-71 -176zM342 1092q0 -72 50 -122t120 -50q78 0 130 50t52 122q0 74 -51 126t-123 52q-74 0 -126 -52t-52 -126z" />
<glyph unicode="9" horiz-adv-x="1044" d="M53 1018q0 182 127 309t309 127q180 0 307.5 -127t127.5 -309v-529q0 -82 -25 -160.5t-79 -155.5t-156.5 -125t-239.5 -48h-72v174h80q139 0 223 94t84 258v148q-104 -90 -250 -90q-182 0 -309 127t-127 307zM240 1017.5q0 -102.5 73.5 -175t176 -72.5t176 72.5 t73.5 185.5q0 98 -74.5 170t-175.5 72q-102 0 -175.5 -75t-73.5 -177.5z" />
<glyph unicode=":" horiz-adv-x="514" d="M160 324q0 41 28.5 69.5t67.5 28.5q41 0 69.5 -28.5t28.5 -69.5t-28.5 -70t-69.5 -29q-39 0 -67.5 29t-28.5 70zM162 760q0 39 28.5 67.5t67.5 28.5t66.5 -28.5t27.5 -67.5t-27.5 -66.5t-66.5 -27.5t-67.5 27.5t-28.5 66.5z" />
<glyph unicode=";" horiz-adv-x="501" d="M90 -113q98 55 141 107l-24 6q-51 29 -51 90q0 41 28.5 67.5t69.5 24.5q45 -2 68.5 -37.5t23.5 -72.5q0 -121 -135 -244zM158 536.5q0 38.5 26.5 65.5t65.5 27t66.5 -27t27.5 -65.5t-27.5 -66.5t-66.5 -28t-65.5 28t-26.5 66.5z" />
<glyph unicode="&#x3c;" horiz-adv-x="1019" d="M133 733v2l569 570l127 -121l-454 -451l450 -454l-123 -115z" />
<glyph unicode="=" horiz-adv-x="974" d="M160 453v180h655v-180h-655zM160 731v180h655v-180h-655z" />
<glyph unicode="&#x3e;" horiz-adv-x="1019" d="M190 1184l127 121l570 -570v-2l-570 -569l-122 115l450 454z" />
<glyph unicode="?" horiz-adv-x="880" d="M63 1090q0 154 95.5 258t269.5 104q84 0 161 -35t127 -95t76.5 -135t13.5 -161t-69 -166q-37 -55 -91 -111.5t-80.5 -88t-48 -104.5t-23.5 -183v-129h-181v190q0 94 29 174t62.5 125t87 106.5t75.5 94.5q59 94 50 170t-60 123t-115 47q-88 0 -139 -49t-51 -135h-189z M311 90q0 39 27 65.5t63.5 26.5t64.5 -26.5t28 -65.5q0 -37 -28 -63.5t-64.5 -26.5t-63.5 26.5t-27 63.5z" />
<glyph unicode="@" horiz-adv-x="1660" d="M119 375v325q0 115 38 207t102.5 149.5t134 92.5t145.5 49q88 14 179 18.5t176 -21.5t152.5 -69t107.5 -123.5t40 -185.5l76 -31v-176l-76 33v-457q-119 -35 -214 -54t-203.5 -23.5t-183.5 22.5t-127 98.5t-60 188.5v207q0 227 180 295q68 29 156.5 22.5t150 -22 t113.5 -37.5q-10 86 -82 126t-160 42q-205 4 -338 -85t-133 -282v-295q0 -143 76.5 -234.5t180 -123t230.5 -31.5q215 0 379 84t164 248l-2 358q0 57 1 86t11 77t30.5 75.5t61.5 55.5t101 40l55 -145q-51 -20 -66.5 -58.5t-15.5 -97.5l2 -363q0 -121 -48 -217t-123 -152.5 t-175 -94t-192.5 -52t-186.5 -14.5q-283 -2 -470 141.5t-187 403.5zM580 467q0 -41 11 -76t41 -64.5t76 -43t122.5 -6t177.5 39.5v388q-61 31 -132 49t-139.5 17t-112.5 -41t-44 -120v-143z" />
<glyph unicode="A" horiz-adv-x="1073" d="M31 0l379 1434h243l400 -1434h-217l-113 420h-377l-108 -420h-207zM391 614h287l-148 512z" />
<glyph unicode="B" horiz-adv-x="1138" d="M162 0v1434h430q168 0 275.5 -92.5t107.5 -266.5q0 -190 -135 -282q-2 -2 -2 -5v-2q90 -41 150.5 -132t60.5 -232q0 -78 -21.5 -148.5t-69 -134t-134.5 -101.5t-206 -38h-456zM348 172h205q139 0 212 52t73 204q0 127 -74 182.5t-186 55.5h-230v-494zM348 846h180 q233 0 234 207q0 111 -57.5 153.5t-165.5 42.5h-191v-403z" />
<glyph unicode="C" horiz-adv-x="925" d="M129 375v657q0 156 44 236t134 135q92 52 219 52q13 0 27 -1q143 -6 264 -68l-53 -159q-98 37 -211 37q-98 0 -168 -52.5t-70 -160.5v-672q0 -92 45.5 -143.5t122.5 -61.5q35 -5 73 -5q45 0 92 7q87 12 190 43l30 -172q-100 -39 -200 -56q-66 -11 -131 -12q-34 0 -68 4 q-98 9 -173 49t-121 127t-46 216z" />
<glyph unicode="D" horiz-adv-x="1146" d="M162 0v1436h385q231 0 353 -127t122 -338v-561q0 -410 -434 -410h-426zM348 170h207q45 0 78 3t74 16.5t66.5 36t44 64.5t18.5 99v602q0 133 -73 196.5t-196 63.5h-219v-1081z" />
<glyph unicode="E" horiz-adv-x="942" d="M162 0v1434h684v-185h-498v-403h320l-56 -180h-264v-498h494v-168h-680z" />
<glyph unicode="F" horiz-adv-x="878" d="M162 0v1434h684v-185h-498v-403h309l-65 -180h-244v-666h-186z" />
<glyph unicode="G" horiz-adv-x="1060" d="M127 387v643q0 262 178 371q92 52 219 52q13 0 27 -1q143 -6 264 -68l-55 -159q-104 39 -199 39q-248 0 -248 -215v-666q0 -217 244 -217q98 0 162.5 53t64.5 162v53h-122l-62 180h369v-614h-168l-19 41q-90 -61 -223 -61q-180 0 -306 102t-126 305z" />
<glyph unicode="H" horiz-adv-x="1204" d="M162 0v1434h186v-588h510v588h184v-1434h-184v666h-510v-666h-186z" />
<glyph unicode="I" horiz-adv-x="555" d="M76 1257v177h317v-1434h-188v1253z" />
<glyph unicode="J" horiz-adv-x="585" d="M49 76q47 0 87 12t76 63.5t36 137.5v964l-127 4v177h311v-1164q0 -180 -74.5 -262t-251.5 -84z" />
<glyph unicode="K" horiz-adv-x="1054" d="M162 0v1436h196v-562l377 562h223l-444 -650l533 -786h-230l-414 616l-45 -67v-549h-196z" />
<glyph unicode="L" horiz-adv-x="925" d="M162 0v1434h186v-1264h553v-170h-739z" />
<glyph unicode="M" horiz-adv-x="1421" d="M162 0v1434h186l361 -1057l364 1057h187v-1434h-187v877l-287 -877h-155l-283 874v-874h-186z" />
<glyph unicode="N" horiz-adv-x="1331" d="M162 0v1434h186l633 -1053v1053h188v-1434h-188l-633 1057v-1057h-186z" />
<glyph unicode="O" horiz-adv-x="1114" d="M127 379v659q0 211 115.5 319.5t318.5 108.5t314.5 -114.5t111.5 -315.5v-657q0 -207 -126 -304.5t-302 -97.5t-304 97.5t-128 304.5zM313 406q0 -115 64.5 -178.5t179.5 -63.5q111 0 177.5 64.5t66.5 179.5v587q0 135 -56.5 205t-187.5 70t-187.5 -68.5t-56.5 -204.5 v-591z" />
<glyph unicode="P" horiz-adv-x="1120" d="M162 0v1434h479q207 0 308.5 -131.5t101.5 -337.5q0 -530 -392 -531h-311v-434h-186zM348 614h266q53 0 94.5 14.5t68 32t44 53.5t26.5 58.5t13 67.5t4 62v61q0 160 -65.5 223t-192.5 63h-258v-635z" />
<glyph unicode="Q" horiz-adv-x="1116" d="M129 379v659q0 211 115.5 319.5t318.5 108.5t314.5 -114.5t111.5 -315.5v-657q0 -174 -88 -267.5t-207 -115.5q27 -33 69 -44q36 -10 95 -10q11 0 23 1l-19 -164h-15q-258 0 -343 203q-68 4 -128.5 26.5t-118.5 65.5t-93 122t-35 183zM315 381q0 -74 38 -143.5t114 -71.5 q-4 25 -4 115v75h188v-73q0 -98 2 -115q78 4 114 67.5t36 147.5v659q0 98 -58.5 164t-185.5 66q-244 0 -244 -230v-661z" />
<glyph unicode="R" horiz-adv-x="1161" d="M162 0v1434h491q197 0 297.5 -133.5t100.5 -337.5q0 -72 -3.5 -118t-17.5 -117t-51 -128t-94 -100l168 -500h-191l-149 438q-16 -4 -47 -4h-318v-434h-186zM348 614h277q55 0 97 15.5t65.5 48.5t39 62.5t21.5 77.5t7 74t1 71q0 160 -66.5 222t-193.5 62h-248v-633z" />
<glyph unicode="S" horiz-adv-x="1116" d="M84 365l199 22q10 -96 85.5 -161.5t196.5 -65.5q135 0 211 61.5t76 157.5q0 82 -40 141.5t-105.5 96t-143.5 67.5t-155.5 64.5t-143 75.5t-105.5 112t-40 164q0 143 119.5 248.5t343.5 105.5q170 0 299 -61l-9 -29q-10 -27 -25.5 -72t-25.5 -75q-121 49 -237 49 q-131 0 -200 -49q-65 -46 -65 -122q0 -74 82 -128q78 -51 185.5 -93.5t214 -94.5t181.5 -150.5t75 -233.5q0 -184 -121 -301t-369 -117q-223 0 -351 118t-132 270z" />
<glyph unicode="T" horiz-adv-x="888" d="M37 1249v185h823v-185h-323v-1249h-187v1249h-313z" />
<glyph unicode="U" horiz-adv-x="1169" d="M154 381v1055h186v-1002q0 -268 244 -268q246 0 245 268v1002h187v-1055q0 -109 -38 -188.5t-102.5 -122.5t-136 -63.5t-153.5 -20.5t-155 20.5t-137.5 63.5t-102 122.5t-37.5 188.5z" />
<glyph unicode="V" horiz-adv-x="1028" d="M25 1434h208l281 -1096l277 1096h213l-375 -1434h-228z" />
<glyph unicode="W" horiz-adv-x="1507" d="M41 1434h205l211 -1049l219 1049h160l219 -1049l200 1049h211l-295 -1434h-227l-188 899l-187 -899h-231z" />
<glyph unicode="X" horiz-adv-x="1198" d="M35 0l448 719l-420 715h220l319 -521l311 521h220l-418 -703l450 -731h-235l-336 535l-328 -535h-231z" />
<glyph unicode="Y" horiz-adv-x="1155" d="M90 874v560h186v-553q0 -131 74 -197t209 -66q104 0 169 36t85 89v691h186v-1115q0 -319 -274 -350l-55 140q143 27 143 219v176q-100 -70 -254 -70q-213 0 -341 116.5t-128 323.5z" />
<glyph unicode="Z" horiz-adv-x="1165" d="M80 0v170l749 1081h-723v183h959v-183l-752 -1077h764v-174h-997z" />
<glyph unicode="[" horiz-adv-x="563" d="M154 -233v1906h329v-172l-143 -20v-1522l143 -20v-172h-329z" />
<glyph unicode="\" horiz-adv-x="972" d="M55 1673h201l664 -1906h-199z" />
<glyph unicode="]" horiz-adv-x="563" d="M80 -61l143 20v1522l-143 20v172h330v-1906h-330v172z" />
<glyph unicode="^" horiz-adv-x="1040" d="M223 1552l303 289l291 -289l-117 -79l-176 184l-186 -184z" />
<glyph unicode="_" horiz-adv-x="765" d="M55 0h656v-139h-656v139z" />
<glyph unicode="`" horiz-adv-x="1036" d="M376 1438q9 37 46 53q29 12 66.5 -1t54.5 -54l98 -228h-129l-115 150q-30 43 -21 80z" />
<glyph unicode="a" d="M72 317v29v170q0 203 141 272q70 33 154 33h10q90 -2 168 -25.5t129 -56.5q0 172 -254 172l14 131q78 0 140.5 -9t105.5 -30.5t75.5 -44t51 -59.5t31 -64.5t16.5 -74.5t5 -74t1 -76v-610q-218 -20 -344 -20q-54 0 -92 4q-336 36 -352 333zM258 360q0 -212 267 -211 q66 0 149 13v391q-49 29 -113.5 50.5t-135.5 29.5q-14 2 -27 1q-53 0 -92 -26q-48 -33 -48 -112v-136z" />
<glyph unicode="b" horiz-adv-x="978" d="M127 0v1434h186v-428q82 35 184 37q7 0 13 1q95 0 199 -40q174 -80 174 -295v-387q0 -203 -160 -285q-121 -61 -270.5 -61.5t-325.5 24.5zM313 162q57 -12 121 -12t124 13t100 53t40 101v349q0 88 -46 136t-111 54q-22 2 -44 2q-43 0 -83 -8q-61 -12 -101 -37v-651z" />
<glyph unicode="c" horiz-adv-x="813" d="M92 369v262q0 145 57.5 243.5t151.5 137.5q78 32 171 32q20 0 40 -2q117 -8 236 -63l-52 -156q-106 42 -190 42q-60 0 -110 -21q-118 -51 -117 -201v-297q0 -80 46 -125t116 -54q42 -6 84 -6q27 0 54 3q67 6 123 24l50 -176q-131 -35 -245 -35q-99 0 -185 27 q-121 41 -175.5 126t-54.5 239z" />
<glyph unicode="d" horiz-adv-x="978" d="M96 322v387q0 215 174 295q101 40 204 40q7 0 14 -1q110 -3 180 -39v430h184v-1434q-176 -25 -325.5 -25t-270.5 62q-160 82 -160 285zM281 311q0 -104 114 -143q61 -21 133 -21q65 0 140 17v649q-78 41 -165 47q-9 1 -19 1q-76 0 -136 -45q-68 -50 -67 -163v-342z" />
<glyph unicode="e" horiz-adv-x="917" d="M98 274v420q0 166 103.5 258t273.5 92t265.5 -91t95.5 -253v-294l-549 -31v-80q0 -82 55 -120q41 -28 105 -28q22 0 48 4q97 13 220 78l69 -157q-152 -92 -338 -97h-16q-148 0 -237 71q-95 74 -95 228zM287 549l360 20v133q0 84 -53 124t-121 40q-88 0 -137 -48t-49 -126 v-143z" />
<glyph unicode="f" horiz-adv-x="530" d="M127 0v1124q0 90 25.5 157t68.5 100.5t96 55.5q49 20 100 19h10q56 -2 108 -8l-31 -168q-24 5 -47 5q-46 0 -84 -22q-57 -34 -58 -139v-98h199l-49 -176h-150v-850h-188z" />
<glyph unicode="g" horiz-adv-x="993" d="M94 360v306q0 180 105.5 279t283.5 99q152 0 201 -73l25 55h157v-1157q0 -276 -286 -299l-45 145q145 18 145 179v161q-51 -80 -205 -80q-180 0 -280.5 98.5t-100.5 286.5zM281 375q0 -102 48 -161.5t146 -59.5q205 0 205 278v227q0 98 -53.5 150.5t-151.5 52.5 q-92 0 -143 -55t-51 -152v-280z" />
<glyph unicode="h" horiz-adv-x="999" d="M127 0v1434h186v-433q66 37 179 42q12 1 23 1q100 0 194 -38q174 -80 174 -297v-709h-187v655q0 98 -44 151.5t-108 60.5q-24 3 -47 3q-40 0 -79 -8q-61 -12 -105 -39v-823h-186z" />
<glyph unicode="i" horiz-adv-x="440" d="M121 1354q0 39 31.5 69.5t72.5 30.5t71 -30.5t30 -69.5q0 -41 -31 -73t-70 -32q-41 0 -72.5 32t-31.5 73zM127 0v1026h186v-1026h-186z" />
<glyph unicode="j" horiz-adv-x="487" d="M25 -285q6 0 16 2t35.5 14.5t45 32t36 59.5t16.5 91v936l-100 16l-47 160h333v-1180q-4 -115 -90 -194.5t-200 -79.5zM166 1354q0 41 31.5 70.5t72.5 29.5t71 -29.5t30 -70.5t-30 -73t-71 -32t-72.5 32t-31.5 73z" />
<glyph unicode="k" horiz-adv-x="940" d="M127 0v1434h186v-684l342 315l138 -131l-281 -240q270 -449 426 -694h-231l-338 565l-56 -51v-514h-186z" />
<glyph unicode="l" horiz-adv-x="440" d="M127 0v1434h186v-1434h-186z" />
<glyph unicode="m" horiz-adv-x="1521" d="M127 0v1026h170l12 -33q85 49 193 49q19 0 40 -2q132 -10 214 -96q29 16 86 45q130 54 243 54q15 0 30 -1q126 -8 208 -98t82 -235v-709h-186v651q0 218 -162 218q-61 0 -146 -31l-49 -21q18 -41 19 -96v-721h-187v647q0 113 -59 169q-56 53 -137 54q-4 0 -9 -1 q-86 -3 -176 -54v-815h-186z" />
<glyph unicode="n" horiz-adv-x="999" d="M127 0v1026h170l14 -33q76 41 185 48q16 1 31 1q93 0 182 -36q174 -80 174 -297v-709h-187v666q0 98 -60 149q-59 50 -145 50h-4q-88 -1 -176 -46v-819h-184z" />
<glyph unicode="o" horiz-adv-x="944" d="M90 377v270q0 195 99.5 298.5t285.5 103.5q178 0 278.5 -107.5t100.5 -294.5v-270q0 -172 -94 -284.5t-284.5 -112.5t-288 113.5t-97.5 283.5zM276 356q0 -96 55.5 -146t143.5 -50t141.5 51t53.5 145v291q0 217 -195 217q-199 0 -199 -217v-291z" />
<glyph unicode="p" horiz-adv-x="989" d="M127 -430v1456h178l4 -45q72 61 201 61q190 0 289.5 -110.5t99.5 -286.5v-285q0 -186 -104.5 -285.5t-276.5 -99.5q-125 0 -205 58v-418zM313 369q0 -211 205 -211q195 0 195 229v266q0 104 -51.5 156.5t-143.5 52.5t-147.5 -51t-57.5 -147v-295z" />
<glyph unicode="q" horiz-adv-x="989" d="M90 360v283q0 176 99.5 287.5t289.5 111.5q111 0 201 -67l6 51h176v-1456l-184 45v420q-72 -59 -207 -60q-172 0 -276.5 99.5t-104.5 285.5zM274 356q0 -96 51.5 -147t145.5 -51q207 0 207 219v272q-2 63 -22.5 108.5t-54.5 67t-64.5 29.5t-65.5 8q-31 0 -58.5 -8 t-62.5 -29.5t-55.5 -72t-20.5 -121.5v-275z" />
<glyph unicode="r" horiz-adv-x="684" d="M127 0v1026h176l8 -31q63 33 135 42q43 6 76 6q22 0 39 -3q43 -6 117 -20l-45 -178q-55 27 -114 27q-47 0 -96 -18q-110 -40 -110 -142v-709h-186z" />
<glyph unicode="s" horiz-adv-x="866" d="M70 260l184 14q4 -55 57.5 -93t137.5 -38q76 0 126 38t50 98q0 63 -51.5 104t-126 64.5t-150.5 52t-134.5 90t-68.5 158.5q-1 12 -1 23q0 101 78 185q87 94 273 95q66 0 123.5 -15.5t81.5 -29.5l25 -15l-56 -168q-57 49 -174 49q-88 0 -122 -35q-30 -30 -30 -74 q0 -8 1 -15q6 -43 63.5 -74t133 -56.5t150.5 -60.5t127 -106.5t52 -174.5q0 -129 -93 -218t-277 -89q-174 0 -274.5 84t-104.5 207z" />
<glyph unicode="t" horiz-adv-x="548" d="M121 270v1164h188v-408h213l-49 -176h-164v-580q0 -129 146 -149l-56 -148q-278 25 -278 297z" />
<glyph unicode="u" horiz-adv-x="1007" d="M117 352v674h186v-657q0 -211 199 -211q193 0 192 217v651h187v-1026h-176l-7 45q-82 -68 -196 -68q-385 0 -385 375z" />
<glyph unicode="v" horiz-adv-x="868" d="M14 1026h203l219 -725l217 725h201l-322 -1026h-194z" />
<glyph unicode="w" horiz-adv-x="1411" d="M14 1026h203l215 -725l191 725h178l190 -725l205 725h201l-328 -1026h-195l-167 645l-170 -645h-199z" />
<glyph unicode="x" horiz-adv-x="950" d="M43 0l319 510l-319 516h229l205 -334l211 334h225l-323 -514l313 -512h-221l-205 328l-205 -328h-229z" />
<glyph unicode="y" horiz-adv-x="1042" d="M113 360v666h184v-633q0 -129 47 -182t143 -53q102 0 155.5 52t53.5 183v350q0 113 56.5 198t167.5 103l65 -147q-104 -29 -104 -147v-875q0 -131 -57.5 -206t-196.5 -99l-68 147q137 23 137 164v156q-66 -61 -209 -62q-180 0 -277 97.5t-97 287.5z" />
<glyph unicode="z" horiz-adv-x="899" d="M76 0v174l475 678h-457v174h705v-170l-477 -682h505v-174h-751z" />
<glyph unicode="{" horiz-adv-x="591" d="M57 725q49 39 98.5 102.5t49.5 118.5v215q0 256 55 367.5t211 154.5l51 -149q-131 -35 -131 -242v-358q0 -88 -119 -207q123 -123 123 -209v-356q0 -207 131 -242l-53 -158q-106 39 -159.5 88.5t-79 144.5t-25.5 265v246q0 39 -33 89t-54.5 70.5t-64.5 59.5z" />
<glyph unicode="|" horiz-adv-x="493" d="M154 -233v1906h186v-1906h-186z" />
<glyph unicode="}" horiz-adv-x="591" d="M66 -80q131 35 131 242v356q0 86 122 209q-119 119 -118 207v358q0 207 -131 242l51 149q156 -43 211 -154.5t55 -367.5v-215q0 -55 49 -118.5t99 -102.5q-43 -39 -64.5 -59.5t-54.5 -70.5t-33 -89v-246q0 -170 -25.5 -265t-79 -144.5t-159.5 -88.5z" />
<glyph unicode="~" horiz-adv-x="1081" d="M117 653q68 84 153.5 105.5t167.5 1t163 -43t158 -14t132 73.5l78 -121q-66 -84 -150 -105.5t-166 0t-161.5 46.5t-160.5 14.5t-141 -78.5z" />
<glyph unicode="&#xa1;" horiz-adv-x="518" d="M158 119l32 1089h136l34 -1091q0 -117 -104 -117q-98 0 -98 119zM168 1364q0 37 26.5 63.5t63.5 26.5q39 0 65.5 -26.5t26.5 -63.5q0 -39 -26.5 -65.5t-65.5 -26.5q-37 0 -63.5 26.5t-26.5 65.5z" />
<glyph unicode="&#xa2;" horiz-adv-x="862" d="M111 369v262q0 178 82.5 281.5t220.5 125.5v238h184v-244q78 -14 168 -53l-51 -156q-57 23 -117 33v-692q57 6 123 24l49 -176q-92 -23 -172 -28v-217h-184v221q-31 4 -74 16q-121 41 -175 126t-54 239zM297 346q0 -125 117 -168v666q-117 -51 -117 -201v-297z" />
<glyph unicode="&#xa3;" horiz-adv-x="960" d="M102 0v170q111 18 172.5 96t61.5 195q0 59 -29 160h-157v184h98q-49 147 -49 250q0 178 111.5 287.5t283.5 109.5q141 0 223 -51l-57 -168q-78 43 -166 43q-109 0 -160 -71.5t-51 -153.5q0 -74 55 -246h367v-184h-307q29 -111 24 -168q-6 -88 -29.5 -150.5t-76.5 -128.5 h424v-174h-738z" />
<glyph unicode="&#xa4;" horiz-adv-x="1036" d="M133 915l135 127l66 -71q76 51 184 51q117 0 178 -51l74 73l129 -129l-74 -65q53 -106 54 -188q0 -78 -56 -193l70 -68l-121 -127l-76 78q-80 -49 -178 -49q-106 0 -180 49l-72 -80l-123 127l70 68q-53 74 -53 195q0 96 49 180zM330 662q0 -76 55 -129.5t133 -53.5 q76 0 130 53.5t54 129t-54 131t-130 55.5q-78 0 -133 -54t-55 -132z" />
<glyph unicode="&#xa5;" horiz-adv-x="1077" d="M55 1434h199l260 -523h43l264 523h201l-264 -523h112v-180h-204l-33 -67v-31h237v-180h-237v-453h-189v453h-229v180h229v31l-34 67h-195v180h104z" />
<glyph unicode="&#xa7;" horiz-adv-x="1142" d="M84 -16h192q4 -80 80 -147.5t209 -67.5q119 0 209 51t90 172q0 72 -42 123t-109.5 81.5t-149.5 59.5t-163 63.5t-146.5 80.5t-104 127t-34.5 190q6 113 71 194q-66 82 -65 195q0 143 118.5 247.5t342.5 104.5q170 0 299 -61l-11 -29q-10 -27 -25.5 -72t-25.5 -75 q-117 59 -233 59q-272 0 -273 -180q0 -72 74 -121t179.5 -83t213 -79t188.5 -137t89 -227q10 -156 -47 -265q47 -72 47 -176q0 -188 -120 -301.5t-370 -113.5q-223 0 -351 117.5t-132 269.5zM305 684q0 -80 61.5 -136t139.5 -81t184.5 -62.5t165.5 -76.5q14 53 14 100 q0 84 -68.5 149.5t-151.5 97.5t-182 67.5t-134 60.5q-29 -45 -29 -119z" />
<glyph unicode="&#xa8;" horiz-adv-x="1036" d="M291 1442q0 35 23.5 59.5t58.5 24.5t59.5 -24.5t24.5 -59.5t-24.5 -58.5t-59.5 -23.5q-33 0 -57.5 24.5t-24.5 57.5zM578 1444q0 35 24.5 59.5t59 24.5t59 -24.5t24.5 -59.5t-24.5 -59.5t-59 -24.5t-59 24.5t-24.5 59.5z" />
<glyph unicode="&#xa9;" horiz-adv-x="1726" d="M96 510q0 324 223.5 543t546.5 219q322 0 543 -219t221 -543q0 -328 -223 -549t-541 -221q-319 0 -544.5 221t-225.5 549zM287 510q0 -258 167 -423t412 -165q242 0 409 166t167 422q0 242 -168 411t-408 169q-244 0 -411.5 -164t-167.5 -416zM436 506q0 197 117 335 t317 138q150 0 262.5 -88t137.5 -229h-187q-12 51 -73.5 88.5t-141.5 37.5q-127 0 -187 -80.5t-60 -199.5q0 -123 64.5 -205t184.5 -82q84 0 146.5 39t66.5 98h189q-33 -147 -143.5 -236t-254.5 -89q-203 0 -320.5 133t-117.5 340z" />
<glyph unicode="&#xaa;" horiz-adv-x="753" d="M84 1063q0 162 121 214t276 -40q0 57 -37.5 85t-164.5 17l16 113q205 8 272.5 -64.5t67.5 -250.5v-336q-98 -16 -168 -21.5t-147.5 3t-125 37t-79 90t-31.5 153.5zM227 1051q0 -94 73 -121t181 -4v176q-41 23 -80 37t-80.5 19t-67.5 -21.5t-26 -85.5z" />
<glyph unicode="&#xab;" horiz-adv-x="1157" d="M82 547v2l383 383l123 -123l-266 -262l264 -268l-121 -115zM532 547v2l383 383l123 -123l-266 -262l264 -268l-121 -115z" />
<glyph unicode="&#xad;" horiz-adv-x="839" d="M92 666v180h656v-180h-656z" />
<glyph unicode="&#xae;" horiz-adv-x="1726" d="M96 510q0 324 223.5 543t546.5 219q322 0 543 -219t221 -543q0 -328 -223 -549t-541 -221q-319 0 -544.5 221t-225.5 549zM287 510q0 -258 167 -423t412 -165q242 0 409 166t167 422q0 242 -168 411t-408 169q-244 0 -411.5 -164t-167.5 -416zM604 80v895h266 q158 0 237 -66.5t79 -189.5q0 -172 -166 -230l184 -409h-190l-164 389h-68v-389h-178zM782 618h82q139 0 140 101q0 47 -34 75.5t-79 28.5h-109v-205z" />
<glyph unicode="&#xaf;" horiz-adv-x="1038" d="M293 1268v162h452v-162h-452z" />
<glyph unicode="&#xb0;" horiz-adv-x="749" d="M80 1157q0 123 86 209t209 86t209 -86t86 -209t-86 -209t-209 -86t-209 86t-86 209zM240 1157q0 -53 37.5 -94t97 -41t97.5 41t38 94t-38 94t-97.5 41t-97 -41t-37.5 -94z" />
<glyph unicode="&#xb1;" horiz-adv-x="917" d="M131 446v170h240v103h-240v160h240v237h174v-237h241v-160h-241v-103h241v-170h-655z" />
<glyph unicode="&#xb2;" horiz-adv-x="923" d="M74 0v172l487 725q100 168 55 271.5t-170 103.5q-63 0 -112 -43t-62 -105l-168 84q37 106 131.5 176t223.5 70q152 0 251 -91t107 -229.5t-90 -302.5l-436 -659h532v-172h-749z" />
<glyph unicode="&#xb3;" horiz-adv-x="929" d="M61 170l123 125q35 -61 99.5 -99t138.5 -38q113 0 182.5 74.5t69.5 179.5q0 115 -84 181t-217 73h-226l388 581h-383v187h589v-183l-270 -405l8 -2q154 -18 267.5 -138t113.5 -294q0 -182 -127 -309.5t-309 -127.5q-111 0 -207.5 52.5t-155.5 142.5z" />
<glyph unicode="&#xb4;" horiz-adv-x="1038" d="M395 1204l99 228q16 41 54 54t66 1q37 -16 46.5 -53t-21.5 -80l-115 -150h-129z" />
<glyph unicode="&#xb5;" horiz-adv-x="1058" d="M129 -412v1438h186v-803q16 -16 91 -43.5t147 -27.5q166 0 166 217v649l188 26v-903q6 -57 56 -86l-152 -67q-6 -2 -21.5 9t-27.5 30q-70 -61 -225 -50q-96 12 -222 66v-473z" />
<glyph unicode="&#xb6;" horiz-adv-x="1425" d="M72 1073q0 205 94 334t287 129h825v-1944h-178v1756l-139 2v-1756l-181 -2v912h-346q-66 0 -119 13t-90 41t-64.5 57.5t-43 78.5t-25.5 86t-14 98.5t-5 96.5t-1 98z" />
<glyph unicode="&#xb8;" horiz-adv-x="1038" d="M281 -418l63 135q76 -51 160 -51q49 0 86 20.5t37 63.5q0 45 -41 59.5t-113 -16.5l-84 -39l-59 86l125 160h125l-66 -90q33 14 72 14q70 0 121 -46t51 -128q0 -109 -85 -159t-190 -50q-89 0 -202 41z" />
<glyph unicode="&#xb9;" horiz-adv-x="651" d="M35 1296q14 2 38.5 7.5t85 39t103.5 91.5h187v-1434h-189l2 1182q-27 -16 -71 -29.5t-74 -17.5l-31 -5z" />
<glyph unicode="&#xba;" horiz-adv-x="944" d="M90 377v270q0 195 99.5 298.5t285.5 103.5q178 0 278.5 -107.5t100.5 -294.5v-270q0 -172 -94 -284.5t-284.5 -112.5t-288 113.5t-97.5 283.5zM276 356q0 -96 55.5 -146t143.5 -50t141.5 51t53.5 145v291q0 217 -195 217q-199 0 -199 -217v-291z" />
<glyph unicode="&#xbb;" horiz-adv-x="1157" d="M119 809l123 123l383 -383v-2l-383 -383l-121 115l266 268zM569 809l123 123l383 -383v-2l-383 -383l-121 115l267 268z" />
<glyph unicode="&#xbc;" horiz-adv-x="2672" d="M1637 666l395 768h190l-280 -588h340v588h186v-588h143l-39 -180h-104v-666h-186v666h-645zM704 -233l664 1906h190l-653 -1906h-201zM35 1296q14 2 38.5 7.5t85 39t103.5 91.5h187v-1434h-189l2 1182q-27 -16 -71 -29.5t-74 -17.5l-31 -5z" />
<glyph unicode="&#xbd;" horiz-adv-x="2537" d="M1688 0v172l487 725q100 168 55 271.5t-170 103.5q-63 0 -112 -43t-62 -105l-168 84q37 106 131.5 176t223.5 70q152 0 251 -91t107 -229.5t-90 -302.5l-436 -659h532v-172h-749zM704 -233l664 1906h190l-653 -1906h-201zM35 1296q14 2 38.5 7.5t85 39t103.5 91.5h187 v-1434h-189l2 1182q-27 -16 -71 -29.5t-74 -17.5l-31 -5z" />
<glyph unicode="&#xbe;" horiz-adv-x="2951" d="M1915 666l395 768h190l-280 -588h340v588h186v-588h143l-39 -180h-104v-666h-186v666h-645zM983 -233l664 1906h190l-653 -1906h-201zM61 170l123 125q35 -61 99.5 -99t138.5 -38q113 0 182.5 74.5t69.5 179.5q0 115 -84 181t-217 73h-226l388 581h-383v187h589v-183 l-270 -405l8 -2q154 -18 267.5 -138t113.5 -294q0 -182 -127 -309.5t-309 -127.5q-111 0 -207.5 52.5t-155.5 142.5z" />
<glyph unicode="&#xbf;" horiz-adv-x="921" d="M99.5 426q13.5 86 68.5 166q37 53 91 110.5t80 89t47.5 103.5t23.5 184v129h182v-190q0 -94 -28.5 -174t-63.5 -125t-87.5 -105.5t-74.5 -95.5q-59 -94 -50 -170t60 -123t115 -47q88 0 138 49t50 135h191q0 -154 -95.5 -258t-269.5 -104q-84 0 -160.5 35t-127 95t-77 135 t-13 161zM412 1362q0 37 26.5 63.5t65.5 26.5q37 0 63.5 -26.5t26.5 -63.5q0 -39 -26.5 -65.5t-63.5 -26.5q-39 0 -65.5 26.5t-26.5 65.5z" />
<glyph unicode="&#xc0;" horiz-adv-x="1073" d="M31 0l379 1434h243l400 -1434h-217l-113 420h-377l-108 -420h-207zM306 1730.5q9 36.5 46 53.5q29 12 67 -1.5t54 -53.5l98 -228h-129l-114 150q-31 43 -22 79.5zM391 614h287l-148 512z" />
<glyph unicode="&#xc1;" horiz-adv-x="1073" d="M31 0l379 1434h243l400 -1434h-217l-113 420h-377l-108 -420h-207zM391 614h287l-148 512zM473 1497l98 227q16 41 54.5 54.5t66.5 1.5q37 -16 46.5 -53t-21.5 -80l-115 -150h-129z" />
<glyph unicode="&#xc2;" horiz-adv-x="1073" d="M31 0l379 1434h243l400 -1434h-217l-113 420h-377l-108 -420h-207zM238 1579l303 289l290 -289l-116 -80l-176 184l-187 -184zM391 614h287l-148 512z" />
<glyph unicode="&#xc3;" horiz-adv-x="1073" d="M31 0l379 1434h243l400 -1434h-217l-113 420h-377l-108 -420h-207zM190 1618q72 80 144 99.5t131 -4t117.5 -49.5t121 -19.5t119.5 69.5l74 -115q-70 -82 -139.5 -100t-129 6.5t-116.5 51t-123.5 19.5t-128.5 -73zM391 614h287l-148 512z" />
<glyph unicode="&#xc4;" horiz-adv-x="1073" d="M31 0l379 1434h243l400 -1434h-217l-113 420h-377l-108 -420h-207zM303 1579q0 35 23.5 59.5t58.5 24.5t59.5 -24.5t24.5 -59.5t-24.5 -58.5t-59.5 -23.5q-33 0 -57.5 23.5t-24.5 58.5zM391 614h287l-148 512zM590 1581q0 33 24.5 58.5t59.5 25.5t59.5 -24.5t24.5 -59.5 t-24.5 -59.5t-59.5 -24.5t-59.5 24.5t-24.5 59.5z" />
<glyph unicode="&#xc5;" horiz-adv-x="1073" d="M33 0l368 1397q-90 68 -90 180q0 92 65.5 157.5t158 65.5t158 -65.5t65.5 -157.5q0 -115 -92 -182l389 -1395h-217l-113 420h-377l-108 -420h-207zM393 614h287l-148 512zM446 1577q0 -37 26 -62.5t62.5 -25.5t62.5 25.5t26 62.5t-26 62.5t-62.5 25.5t-62.5 -25.5 t-26 -62.5z" />
<glyph unicode="&#xc6;" horiz-adv-x="1519" d="M-12 0l749 1434h686v-185h-497v-403h340l-60 -180h-280v-496h493v-170h-682l2 434h-311l-225 -434h-215zM520 614h219v424z" />
<glyph unicode="&#xc7;" horiz-adv-x="925" d="M129 375v657q0 156 44 236t134 135q102 57 245.5 51t264.5 -68l-53 -159q-98 37 -211 37q-98 0 -168 -52.5t-70 -160.5v-672q0 -92 45.5 -143.5t123 -61.5t164.5 2t190 43l30 -172q-168 -66 -329 -67l-50 -70q33 14 72 14q70 0 121 -46t51 -128q0 -109 -85 -159t-189 -50 q-90 0 -203 41l63 135q76 -51 160 -51q49 0 86 20.5t37 63.5q0 45 -41 59.5t-112 -16.5l-84 -39l-60 86l115 148q-133 25 -212 119t-79 268z" />
<glyph unicode="&#xc8;" horiz-adv-x="942" d="M162 0v1434h684v-185h-498v-403h320l-56 -180h-264v-498h494v-168h-680zM302 1728.5q9 36.5 46 53.5q29 12 67 -1.5t54 -54.5l98 -227h-129l-114 150q-31 43 -22 79.5z" />
<glyph unicode="&#xc9;" horiz-adv-x="942" d="M162 0v1434h684v-185h-498v-403h320l-56 -180h-264v-498h494v-168h-680zM487 1495l99 227q16 41 54 54.5t67 1.5q37 -16 46 -53t-22 -80l-115 -150h-129z" />
<glyph unicode="&#xca;" horiz-adv-x="942" d="M162 0v1434h684v-185h-498v-403h320l-56 -180h-264v-498h494v-168h-680zM211 1579l303 289l291 -289l-117 -80l-176 184l-186 -184z" />
<glyph unicode="&#xcb;" horiz-adv-x="942" d="M162 0v1434h684v-185h-498v-403h320l-56 -180h-264v-498h494v-168h-680zM270 1579q0 35 23.5 59.5t58.5 24.5t59.5 -24.5t24.5 -59.5t-24.5 -58.5t-59.5 -23.5q-33 0 -57.5 23.5t-24.5 58.5zM557 1581q0 33 24.5 58.5t59.5 25.5t59.5 -24.5t24.5 -59.5t-24.5 -59.5 t-59.5 -24.5t-59.5 24.5t-24.5 59.5z" />
<glyph unicode="&#xcc;" horiz-adv-x="555" d="M76 1257v177h317v-1434h-188v1253zM115.5 1728.5q9.5 36.5 46.5 53.5q29 12 66.5 -1.5t54.5 -54.5l98 -227h-129l-115 150q-31 43 -21.5 79.5z" />
<glyph unicode="&#xcd;" horiz-adv-x="555" d="M76 1257v177h317v-1434h-188v1253zM244 1495l98 227q16 41 54 54.5t67 1.5q37 -16 46 -53t-22 -80l-114 -150h-129z" />
<glyph unicode="&#xce;" horiz-adv-x="555" d="M-8 1579l303 289l291 -289l-117 -80l-176 184l-187 -184zM76 1257v177h317v-1434h-188v1253z" />
<glyph unicode="&#xcf;" horiz-adv-x="555" d="M41 1575q0 35 23.5 59.5t58.5 24.5t59.5 -24.5t24.5 -59.5t-24.5 -58.5t-59.5 -23.5q-33 0 -57.5 23.5t-24.5 58.5zM76 1257v177h317v-1434h-188v1253zM328 1577q0 33 24.5 58.5t59 25.5t59.5 -24.5t25 -59.5t-25 -59.5t-59.5 -24.5t-59 24.5t-24.5 59.5z" />
<glyph unicode="&#xd0;" horiz-adv-x="1236" d="M92 870v181h101v385h385q207 0 326.5 -104.5t142.5 -280.5h124v-181h-118v-460q0 -410 -435 -410h-425v870h-101zM379 170h207q45 0 77.5 3t73.5 16.5t66.5 36t44 64.5t18.5 99v481h-487v-700zM379 1051h483q-33 201 -264 200h-219v-200z" />
<glyph unicode="&#xd1;" horiz-adv-x="1331" d="M162 0v1434h186l633 -1053v1053h188v-1434h-188l-633 1057v-1057h-186zM326 1616q72 80 143.5 99.5t130.5 -4t117.5 -49.5t121 -19.5t119.5 69.5l74 -115q-70 -82 -139.5 -100t-128.5 6.5t-116.5 51t-124 19.5t-128.5 -73z" />
<glyph unicode="&#xd2;" horiz-adv-x="1114" d="M127 379v659q0 211 115.5 319.5t318.5 108.5t314.5 -114.5t111.5 -315.5v-657q0 -207 -126 -304.5t-302 -97.5t-304 97.5t-128 304.5zM313 406q0 -115 64.5 -178.5t179.5 -63.5q111 0 177.5 64.5t66.5 179.5v587q0 135 -56.5 205t-187.5 70t-187.5 -68.5t-56.5 -204.5 v-591zM343 1728.5q9 36.5 46 53.5q29 12 67 -1.5t54 -54.5l98 -227h-129l-114 150q-31 43 -22 79.5z" />
<glyph unicode="&#xd3;" horiz-adv-x="1114" d="M127 379v659q0 211 115.5 319.5t318.5 108.5t314.5 -114.5t111.5 -315.5v-657q0 -207 -126 -304.5t-302 -97.5t-304 97.5t-128 304.5zM313 406q0 -115 64.5 -178.5t179.5 -63.5q111 0 177.5 64.5t66.5 179.5v587q0 135 -56.5 205t-187.5 70t-187.5 -68.5t-56.5 -204.5 v-591zM524 1495l99 227q16 41 54 54.5t66 1.5q37 -16 46.5 -53t-21.5 -80l-115 -150h-129z" />
<glyph unicode="&#xd4;" horiz-adv-x="1114" d="M127 379v659q0 211 115.5 319.5t318.5 108.5t314.5 -114.5t111.5 -315.5v-657q0 -207 -126 -304.5t-302 -97.5t-304 97.5t-128 304.5zM266 1579l303 289l291 -289l-117 -80l-176 184l-186 -184zM313 406q0 -115 64.5 -178.5t179.5 -63.5q111 0 177.5 64.5t66.5 179.5v587 q0 135 -56.5 205t-187.5 70t-187.5 -68.5t-56.5 -204.5v-591z" />
<glyph unicode="&#xd5;" horiz-adv-x="1114" d="M127 379v659q0 211 115.5 319.5t318.5 108.5t314.5 -114.5t111.5 -315.5v-657q0 -207 -126 -304.5t-302 -97.5t-304 97.5t-128 304.5zM225 1620q72 80 143.5 99.5t131 -4t118 -49.5t121 -19.5t119.5 69.5l74 -114q-70 -82 -139.5 -100.5t-129 6t-117 51t-124 19.5 t-127.5 -73zM313 406q0 -115 64.5 -178.5t179.5 -63.5q111 0 177.5 64.5t66.5 179.5v587q0 135 -56.5 205t-187.5 70t-187.5 -68.5t-56.5 -204.5v-591z" />
<glyph unicode="&#xd6;" horiz-adv-x="1114" d="M127 379v659q0 211 115.5 319.5t318.5 108.5t314.5 -114.5t111.5 -315.5v-657q0 -207 -126 -304.5t-302 -97.5t-304 97.5t-128 304.5zM313 406q0 -115 64.5 -178.5t179.5 -63.5q111 0 177.5 64.5t66.5 179.5v587q0 135 -56.5 205t-187.5 70t-187.5 -68.5t-56.5 -204.5 v-591zM326 1579q0 35 23.5 59.5t58 24.5t59.5 -24.5t25 -59.5t-25 -58.5t-59.5 -23.5t-58 23.5t-23.5 58.5zM612 1581q0 33 26 58.5t58 25.5q35 0 59.5 -24.5t24.5 -59.5t-24.5 -59.5t-59 -24.5t-59.5 24.5t-25 59.5z" />
<glyph unicode="&#xd7;" horiz-adv-x="909" d="M139 928l123 104l189 -225l186 227l125 -102l-207 -250l205 -246l-123 -106l-186 223l-187 -225l-121 108l201 246z" />
<glyph unicode="&#xd8;" horiz-adv-x="1132" d="M139 379v659q0 211 116 319.5t318 108.5q82 0 156 -22l80 229h201l-115 -327q104 -117 104 -310v-657q0 -207 -125.5 -304.5t-302.5 -97.5q-76 0 -147 19l-80 -229h-199l111 317q-117 102 -117 295zM326 406q0 -49 12 -89l326 940q-41 12 -95 13q-131 0 -187 -68.5 t-56 -204.5v-591zM485 174q33 -10 84 -10q111 0 177.5 64.5t66.5 179.5v587q0 35 -8 92z" />
<glyph unicode="&#xd9;" horiz-adv-x="1169" d="M154 381v1055h186v-1002q0 -268 244 -268q246 0 245 268v1002h187v-1055q0 -109 -38 -188.5t-102.5 -122.5t-136 -63.5t-153.5 -20.5t-155 20.5t-137.5 63.5t-102 122.5t-37.5 188.5zM384 1728.5q9 36.5 46 53.5q29 12 67 -1.5t54 -54.5l98 -227h-129l-114 150 q-31 43 -22 79.5z" />
<glyph unicode="&#xda;" horiz-adv-x="1169" d="M154 381v1055h186v-1002q0 -268 244 -268q246 0 245 268v1002h187v-1055q0 -109 -38 -188.5t-102.5 -122.5t-136 -63.5t-153.5 -20.5t-155 20.5t-137.5 63.5t-102 122.5t-37.5 188.5zM520 1497l98 227q16 41 54.5 54.5t66.5 1.5q37 -16 46.5 -53t-21.5 -80l-115 -150 h-129z" />
<glyph unicode="&#xdb;" horiz-adv-x="1169" d="M154 381v1055h186v-1002q0 -268 244 -268q246 0 245 268v1002h187v-1055q0 -109 -38 -188.5t-102.5 -122.5t-136 -63.5t-153.5 -20.5t-155 20.5t-137.5 63.5t-102 122.5t-37.5 188.5zM289 1579l303 289l291 -289l-117 -80l-176 184l-187 -184z" />
<glyph unicode="&#xdc;" horiz-adv-x="1169" d="M154 381v1055h186v-1002q0 -268 244 -268q246 0 245 268v1002h187v-1055q0 -109 -38 -188.5t-102.5 -122.5t-136 -63.5t-153.5 -20.5t-155 20.5t-137.5 63.5t-102 122.5t-37.5 188.5zM354 1579q0 35 23.5 59.5t58.5 24.5t59.5 -24.5t24.5 -59.5t-24.5 -58.5t-59.5 -23.5 t-58.5 23.5t-23.5 58.5zM641 1581q0 33 25.5 58.5t58.5 25.5q35 0 59.5 -24.5t24.5 -59.5t-24.5 -59.5t-59.5 -24.5t-59.5 24.5t-24.5 59.5z" />
<glyph unicode="&#xdd;" horiz-adv-x="1155" d="M90 874v560h186v-553q0 -131 74 -197t209 -66q104 0 169 36t85 89v691h186v-1115q0 -319 -274 -350l-55 140q143 27 143 219v176q-100 -70 -254 -70q-213 0 -341 116.5t-128 323.5zM483 1497l99 227q16 41 54 54.5t66 1.5q37 -16 46.5 -53t-21.5 -80l-115 -150h-129z" />
<glyph unicode="&#xde;" horiz-adv-x="991" d="M162 0v1434h184v-453q82 61 199 61q190 0 289.5 -110.5t99.5 -286.5q0 -193 -105.5 -300t-275.5 -107q-129 0 -207 79v-317h-184zM346 655q0 -125 59.5 -183t147.5 -58q80 0 138.5 56t58.5 179q0 94 -53.5 155.5t-143.5 61.5q-80 0 -142.5 -55.5t-64.5 -155.5z" />
<glyph unicode="&#xdf;" horiz-adv-x="1052" d="M127 0v1100q0 154 84 245t231.5 91t227.5 -89.5t74.5 -199t-76.5 -172.5l-47 2q-16 -29 -19.5 -56.5t10 -54t32 -51t49 -53.5t60 -54.5t66.5 -59.5t66 -64q55 -57 85.5 -122t37 -149t-36.5 -168q-51 -106 -168 -146t-237 -15.5t-199 92.5l86 168q57 -55 126.5 -76 t125 -6.5t79.5 55.5q80 129 -69 281q-31 33 -100.5 95t-104.5 100t-71 96.5t-33.5 119t40.5 129.5q70 0 98.5 54.5t1 109.5t-92.5 55q-139 0 -140 -196v-1061h-186z" />
<glyph unicode="&#xe0;" d="M72 317v29v170q0 203 141 272q74 35 164 33t168 -25.5t129 -56.5q0 172 -254 172l14 131q78 0 140.5 -9t105.5 -30.5t75.5 -44t51 -59.5t31 -64.5t16.5 -74.5t5 -74t1 -76v-610q-311 -29 -436 -16q-336 36 -352 333zM257 1335q9 37 46 54q29 12 67 -1.5t54 -54.5l98 -227 h-129l-114 149q-31 43 -22 80zM258 360q0 -264 416 -198v391q-49 29 -113.5 50.5t-135.5 29.5t-119 -25t-48 -112v-136z" />
<glyph unicode="&#xe1;" d="M72 317v29v170q0 203 141 272q74 35 164 33t168 -25.5t129 -56.5q0 172 -254 172l14 131q78 0 140.5 -9t105.5 -30.5t75.5 -44t51 -59.5t31 -64.5t16.5 -74.5t5 -74t1 -76v-610q-311 -29 -436 -16q-336 36 -352 333zM258 360q0 -264 416 -198v391q-49 29 -113.5 50.5 t-135.5 29.5t-119 -25t-48 -112v-136zM440 1102l99 227q16 41 54 54.5t66 0.5q37 -16 46.5 -53t-21.5 -80l-115 -149h-129z" />
<glyph unicode="&#xe2;" d="M72 317v29v170q0 203 141 272q74 35 164 33t168 -25.5t129 -56.5q0 172 -254 172l14 131q78 0 140.5 -9t105.5 -30.5t75.5 -44t51 -59.5t31 -64.5t16.5 -74.5t5 -74t1 -76v-610q-311 -29 -436 -16q-336 36 -352 333zM188 1184l304 289l290 -289l-116 -80l-177 184 l-186 -184zM258 360q0 -264 416 -198v391q-49 29 -113.5 50.5t-135.5 29.5t-119 -25t-48 -112v-136z" />
<glyph unicode="&#xe3;" d="M72 317v29v170q0 203 141 272q74 35 164 33t168 -25.5t129 -56.5q0 172 -254 172l14 131q78 0 140.5 -9t105.5 -30.5t75.5 -44t51 -59.5t31 -64.5t16.5 -74.5t5 -74t1 -76v-610q-311 -29 -436 -16q-336 36 -352 333zM123 1231q72 80 143.5 99.5t131 -4t117.5 -49.5 t120.5 -19.5t120.5 69.5l73 -115q-70 -82 -139 -100t-128.5 6.5t-117 51t-124 19.5t-127.5 -73zM258 360q0 -264 416 -198v391q-49 29 -113.5 50.5t-135.5 29.5t-119 -25t-48 -112v-136z" />
<glyph unicode="&#xe4;" d="M72 317v29v170q0 203 141 272q74 35 164 33t168 -25.5t129 -56.5q0 172 -254 172l14 131q78 0 140.5 -9t105.5 -30.5t75.5 -44t51 -59.5t31 -64.5t16.5 -74.5t5 -74t1 -76v-610q-311 -29 -436 -16q-336 36 -352 333zM258 360q0 -264 416 -198v391q-49 29 -113.5 50.5 t-135.5 29.5t-119 -25t-48 -112v-136zM260 1186q0 35 23.5 59.5t58.5 24.5t59.5 -24.5t24.5 -59.5t-24.5 -58.5t-59.5 -23.5t-58.5 23.5t-23.5 58.5zM547 1188q0 33 25.5 58.5t58.5 25.5q35 0 59.5 -24.5t24.5 -59.5t-24.5 -59.5t-59.5 -24.5t-59.5 24.5t-24.5 59.5z" />
<glyph unicode="&#xe5;" horiz-adv-x="972" d="M74 317v29v170q0 203 141 272q74 35 164 33t168 -25.5t129 -56.5q0 172 -254 172v2q-84 10 -140.5 73t-56.5 149q0 92 65.5 157.5t158 65.5t158 -65.5t65.5 -157.5q0 -63 -33 -117q63 -18 108.5 -54t67 -71t32.5 -92.5t13 -92t2 -98.5v-610q-311 -29 -436 -16 q-336 36 -352 333zM260 360q0 -264 416 -198v391q-49 29 -113.5 50.5t-135.5 29.5t-119 -25t-48 -112v-136zM360 1134.5q0 -36.5 26 -62t62.5 -25.5t62.5 25.5t26 62t-26 62.5t-62.5 26t-62.5 -26t-26 -62.5z" />
<glyph unicode="&#xe6;" horiz-adv-x="1492" d="M72 322v24v170q0 203 141 272q74 35 164 33t168 -25.5t129 -56.5q0 172 -254 172l14 131q233 0 336 -96q102 98 281 98q170 0 265 -91t95 -253v-294l-549 -31v-80q0 -82 55.5 -120t152.5 -24.5t220 78.5l70 -157q-152 -92 -338 -97q-98 -4 -172 25q-313 -31 -442 -14 q-324 43 -336 336zM258 360q0 -264 416 -198v391q-49 29 -113.5 50.5t-135.5 29.5t-119 -25t-48 -112v-136zM862 549l361 20v133q0 84 -53.5 124t-120.5 40q-90 0 -138.5 -48t-48.5 -126v-143z" />
<glyph unicode="&#xe7;" horiz-adv-x="813" d="M92 369v262q0 145 57.5 243.5t151.5 137.5t211 30.5t236 -63.5l-52 -156q-182 72 -299.5 21t-117.5 -201v-297q0 -80 46 -125t116.5 -54t137 -3t123.5 24l50 -176q-154 -39 -273 -32l-49 -70q33 14 72 14q70 0 121 -46t51 -128q0 -109 -85 -159t-190 -50q-90 0 -202 41 l63 135q76 -51 160 -51q49 0 86 20.5t37 63.5q0 45 -41 59.5t-113 -16.5l-84 -39l-59 86l119 154q-14 2 -43 10q-121 41 -175.5 126t-54.5 239z" />
<glyph unicode="&#xe8;" horiz-adv-x="917" d="M98 274v420q0 166 103.5 258t273.5 92t265.5 -91t95.5 -253v-294l-549 -31v-80q0 -82 55 -120t152.5 -24.5t220.5 78.5l69 -157q-152 -92 -338 -97q-160 -4 -254 70.5t-94 228.5zM267 1335q9 37 46 54q29 12 67 -1.5t54 -54.5l98 -227h-129l-114 149q-31 43 -22 80z M287 549l360 20v133q0 84 -53 124t-121 40q-88 0 -137 -48t-49 -126v-143z" />
<glyph unicode="&#xe9;" horiz-adv-x="917" d="M98 274v420q0 166 103.5 258t273.5 92t265.5 -91t95.5 -253v-294l-549 -31v-80q0 -82 55 -120t152.5 -24.5t220.5 78.5l69 -157q-152 -92 -338 -97q-160 -4 -254 70.5t-94 228.5zM287 549l360 20v133q0 84 -53 124t-121 40q-88 0 -137 -48t-49 -126v-143zM430 1102 l98 227q16 41 54.5 54.5t66.5 0.5q37 -16 46.5 -53t-21.5 -80l-115 -149h-129z" />
<glyph unicode="&#xea;" horiz-adv-x="917" d="M98 274v420q0 166 103.5 258t273.5 92t265.5 -91t95.5 -253v-294l-549 -31v-80q0 -82 55 -120t152.5 -24.5t220.5 78.5l69 -157q-152 -92 -338 -97q-160 -4 -254 70.5t-94 228.5zM201 1184l303 289l291 -289l-117 -80l-176 184l-187 -184zM287 549l360 20v133 q0 84 -53 124t-121 40q-88 0 -137 -48t-49 -126v-143z" />
<glyph unicode="&#xeb;" horiz-adv-x="917" d="M98 274v420q0 166 103.5 258t273.5 92t265.5 -91t95.5 -253v-294l-549 -31v-80q0 -82 55 -120t152.5 -24.5t220.5 78.5l69 -157q-152 -92 -338 -97q-160 -4 -254 70.5t-94 228.5zM242 1186q0 35 23.5 59.5t58 24.5t59.5 -24.5t25 -59.5t-25 -58.5t-59 -23.5 q-33 0 -57.5 23.5t-24.5 58.5zM287 549l360 20v133q0 84 -53 124t-121 40q-88 0 -137 -48t-49 -126v-143zM528 1188q0 33 25 58.5t59.5 25.5t59 -24.5t24.5 -59.5t-24.5 -59.5t-59 -24.5t-59.5 24.5t-25 59.5z" />
<glyph unicode="&#xec;" horiz-adv-x="440" d="M11 1335q9 37 46 54q29 12 67 -1.5t54 -54.5l98 -227h-129l-114 149q-31 43 -22 80zM127 0v1026h186v-1026h-186z" />
<glyph unicode="&#xed;" horiz-adv-x="440" d="M127 0v1026h186v-1026h-186zM164 1102l98 227q16 41 54 54.5t67 0.5q37 -16 46 -53t-21 -80l-115 -149h-129z" />
<glyph unicode="&#xee;" horiz-adv-x="440" d="M-80 1184l303 289l291 -289l-117 -80l-176 184l-186 -184zM127 0v1026h186v-1026h-186z" />
<glyph unicode="&#xef;" horiz-adv-x="440" d="M-4 1186q0 35 23.5 59.5t58.5 24.5t59.5 -24.5t24.5 -59.5t-24.5 -58.5t-59.5 -23.5q-33 0 -57.5 23.5t-24.5 58.5zM127 0v1026h186v-1026h-186zM283 1188q0 33 24.5 58.5t59 25.5t59.5 -24.5t25 -59.5t-25 -59.5t-59.5 -24.5t-59 24.5t-24.5 59.5z" />
<glyph unicode="&#xf0;" horiz-adv-x="493" />
<glyph unicode="&#xf1;" horiz-adv-x="999" d="M127 0v1026h170l14 -33q76 41 184.5 48.5t213.5 -35.5q174 -80 174 -297v-709h-187v666q0 98 -60.5 149t-148.5 50t-176 -46v-819h-184zM156 1233q72 80 143.5 99.5t130.5 -4t117.5 -49.5t121 -19.5t119.5 69.5l74 -115q-70 -82 -139.5 -100t-128.5 6.5t-116.5 51 t-124 19.5t-128.5 -73z" />
<glyph unicode="&#xf2;" horiz-adv-x="944" d="M90 377v270q0 195 99.5 298.5t285.5 103.5q178 0 278.5 -107.5t100.5 -294.5v-270q0 -172 -94 -284.5t-284.5 -112.5t-288 113.5t-97.5 283.5zM257 1335q9 37 46 54q29 12 67 -1.5t54 -54.5l98 -227h-129l-114 149q-31 43 -22 80zM276 356q0 -96 55.5 -146t143.5 -50 t141.5 51t53.5 145v291q0 217 -195 217q-199 0 -199 -217v-291z" />
<glyph unicode="&#xf3;" horiz-adv-x="944" d="M90 377v270q0 195 99.5 298.5t285.5 103.5q178 0 278.5 -107.5t100.5 -294.5v-270q0 -172 -94 -284.5t-284.5 -112.5t-288 113.5t-97.5 283.5zM276 356q0 -96 55.5 -146t143.5 -50t141.5 51t53.5 145v291q0 217 -195 217q-199 0 -199 -217v-291zM420 1102l98 227 q16 41 54 54.5t67 0.5q37 -16 46 -53t-21 -80l-115 -149h-129z" />
<glyph unicode="&#xf4;" horiz-adv-x="944" d="M90 377v270q0 195 99.5 298.5t285.5 103.5q178 0 278.5 -107.5t100.5 -294.5v-270q0 -172 -94 -284.5t-284.5 -112.5t-288 113.5t-97.5 283.5zM184 1184l303 289l291 -289l-116 -80l-177 184l-186 -184zM276 356q0 -96 55.5 -146t143.5 -50t141.5 51t53.5 145v291 q0 217 -195 217q-199 0 -199 -217v-291z" />
<glyph unicode="&#xf5;" horiz-adv-x="944" d="M90 377v270q0 195 99.5 298.5t285.5 103.5q178 0 278.5 -107.5t100.5 -294.5v-270q0 -172 -94 -284.5t-284.5 -112.5t-288 113.5t-97.5 283.5zM137 1198q72 80 143.5 99.5t131 -4t118 -49t121 -19.5t119.5 69l74 -114q-70 -82 -139.5 -100.5t-129 6t-117 51t-124 19.5 t-127.5 -73zM276 356q0 -96 55.5 -146t143.5 -50t141.5 51t53.5 145v291q0 217 -195 217q-199 0 -199 -217v-291z" />
<glyph unicode="&#xf6;" horiz-adv-x="944" d="M90 377v270q0 195 99.5 298.5t285.5 103.5q178 0 278.5 -107.5t100.5 -294.5v-270q0 -172 -94 -284.5t-284.5 -112.5t-288 113.5t-97.5 283.5zM256 1186q0 35 23.5 59.5t58.5 24.5t59.5 -24.5t24.5 -59.5t-24.5 -58.5t-59.5 -23.5t-58.5 23.5t-23.5 58.5zM276 356 q0 -96 55.5 -146t143.5 -50t141.5 51t53.5 145v291q0 217 -195 217q-199 0 -199 -217v-291zM543 1188q0 33 25.5 58.5t58.5 25.5q35 0 59.5 -24.5t24.5 -59.5t-24.5 -59.5t-59.5 -24.5t-59.5 24.5t-24.5 59.5z" />
<glyph unicode="&#xf7;" horiz-adv-x="864" d="M104 709v157h656v-157h-656zM342 532q0 39 28.5 67t67.5 28t66.5 -28t27.5 -66.5t-27.5 -67.5t-66.5 -29q-41 0 -68.5 27.5t-27.5 68.5zM342 1034q0 39 28.5 66.5t67.5 27.5t66.5 -27.5t27.5 -66.5t-27.5 -67.5t-66.5 -28.5t-67.5 28.5t-28.5 67.5z" />
<glyph unicode="&#xf8;" horiz-adv-x="960" d="M98 377v270q0 195 99.5 298.5t285.5 103.5q70 0 127 -19l76 174h184l-112 -260q104 -109 104 -297v-270q0 -172 -94 -284.5t-285 -112.5q-74 0 -135 18l-57 -135h-180l94 221q-107 107 -107 293zM285 356q0 -41 8 -67l244 569q-25 6 -54 6q-199 0 -198 -217v-291z M422 166q29 -6 61 -6q88 0 141.5 51t53.5 145v291q0 47 -10 88z" />
<glyph unicode="&#xf9;" horiz-adv-x="1007" d="M117 352v674h186v-657q0 -211 199 -211q193 0 192 217v651h187v-1026h-176l-7 45q-82 -68 -196 -68q-385 0 -385 375zM298 1335q9 37 46 54q29 12 67 -1.5t54 -54.5l98 -227h-129l-115 149q-30 43 -21 80z" />
<glyph unicode="&#xfa;" horiz-adv-x="1007" d="M117 352v674h186v-657q0 -211 199 -211q193 0 192 217v651h187v-1026h-176l-7 45q-82 -68 -196 -68q-385 0 -385 375zM446 1102l99 227q16 41 54 54.5t67 0.5q37 -16 46 -53t-22 -80l-115 -149h-129z" />
<glyph unicode="&#xfb;" horiz-adv-x="1007" d="M117 352v674h186v-657q0 -211 199 -211q193 0 192 217v651h187v-1026h-176l-7 45q-82 -68 -196 -68q-385 0 -385 375zM203 1184l303 289l291 -289l-117 -80l-176 184l-187 -184z" />
<glyph unicode="&#xfc;" horiz-adv-x="1007" d="M117 352v674h186v-657q0 -211 199 -211q193 0 192 217v651h187v-1026h-176l-7 45q-82 -68 -196 -68q-385 0 -385 375zM272 1186q0 35 23.5 59.5t58.5 24.5t59.5 -24.5t24.5 -59.5t-24.5 -58.5t-59.5 -23.5t-58.5 23.5t-23.5 58.5zM559 1188q0 33 25.5 58.5t58.5 25.5 q35 0 59.5 -24.5t24.5 -59.5t-24.5 -59.5t-59.5 -24.5t-59.5 24.5t-24.5 59.5z" />
<glyph unicode="&#xfd;" horiz-adv-x="1042" d="M113 360v666h184v-633q0 -129 47 -182t143 -53q102 0 155.5 52t53.5 183v350q0 113 56.5 198t167.5 103l65 -147q-104 -29 -104 -147v-875q0 -131 -57.5 -206t-196.5 -99l-68 147q137 23 137 164v156q-66 -61 -209 -62q-180 0 -277 97.5t-97 287.5zM436 1102l99 227 q16 41 54 54.5t66 0.5q37 -16 46.5 -53t-21.5 -80l-115 -149h-129z" />
<glyph unicode="&#xfe;" horiz-adv-x="954" d="M127 0v1204h184v-223q82 61 199 61q190 0 289.5 -110.5t99.5 -286.5q0 -193 -105.5 -300t-275.5 -107q-129 0 -207 79v-317h-184zM311 655q0 -125 59.5 -183t147.5 -58q80 0 138.5 56t58.5 179q0 94 -53.5 155.5t-143.5 61.5q-80 0 -142.5 -55.5t-64.5 -155.5z" />
<glyph unicode="&#xff;" horiz-adv-x="1042" d="M113 360v666h184v-633q0 -129 47 -182t143 -53q102 0 155.5 52t53.5 183v350q0 113 56.5 198t167.5 103l65 -147q-104 -29 -104 -147v-875q0 -131 -57.5 -206t-196.5 -99l-68 147q137 23 137 164v156q-66 -61 -209 -62q-180 0 -277 97.5t-97 287.5zM281 1186 q0 35 23.5 59.5t58 24.5t59 -24.5t24.5 -59.5t-24.5 -58.5t-59 -23.5t-58 23.5t-23.5 58.5zM567 1188q0 33 25.5 58.5t58.5 25.5q35 0 59.5 -24.5t24.5 -59.5t-24.5 -59.5t-59.5 -24.5t-59.5 24.5t-24.5 59.5z" />
<glyph unicode="&#x152;" horiz-adv-x="1581" d="M127 379v659q0 211 115.5 319.5t318.5 108.5q137 0 240 -57v25h684v-185h-498v-194v-19v-190h320l-56 -180h-264v-287v-23v-188h494v-168h-680v33q-104 -55 -242 -56q-176 0 -304 97.5t-128 304.5zM313 406q0 -115 64.5 -178.5t179.5 -63.5q106 0 173 61.5t71 169.5v625 q-4 123 -61.5 186.5t-182.5 63.5q-131 0 -187.5 -68.5t-56.5 -204.5v-591z" />
<glyph unicode="&#x153;" horiz-adv-x="1533" d="M90 377v270q0 195 99.5 298.5t285.5 103.5q197 0 297 -136q68 74 141.5 102.5t184.5 28.5q158 0 254 -102t96 -264v-281l-592 -39v-51q0 -88 79 -129t194.5 -29.5t228.5 66.5l69 -143q-152 -92 -337 -97q-238 -6 -338 121q-94 -117 -277 -116q-190 0 -287.5 113.5 t-97.5 283.5zM276 356q0 -111 59.5 -161t139.5 -50q78 0 136.5 50.5t58.5 160.5v291q0 227 -195 227q-199 0 -199 -227v-291zM856 537l406 20v115q0 104 -55.5 154.5t-129.5 50.5q-104 0 -162.5 -57.5t-58.5 -170.5v-112z" />
<glyph unicode="&#x178;" horiz-adv-x="1155" d="M90 874v560h186v-553q0 -131 74 -197t209 -66q104 0 169 36t85 89v691h186v-1115q0 -319 -274 -350l-55 140q143 27 143 219v176q-100 -70 -254 -70q-213 0 -341 116.5t-128 323.5zM317 1579q0 35 24 59.5t58.5 24.5t59 -24.5t24.5 -59.5t-24.5 -58.5t-59 -23.5 t-58.5 23.5t-24 58.5zM604 1581q0 33 25.5 58.5t58.5 25.5q35 0 59.5 -24.5t24.5 -59.5t-24.5 -59.5t-59.5 -24.5t-59.5 24.5t-24.5 59.5z" />
<glyph unicode="&#x2c6;" horiz-adv-x="1036" d="M221 1288l303 289l291 -289l-117 -80l-176 185l-186 -185z" />
<glyph unicode="&#x2dc;" horiz-adv-x="1038" d="M166 1331q72 80 143.5 99.5t131 -4t117.5 -49t120.5 -19.5t120.5 69l73 -114q-70 -82 -139 -100.5t-128.5 6t-117 51t-124 19.5t-127.5 -72z" />
<glyph unicode="&#x2000;" horiz-adv-x="933" />
<glyph unicode="&#x2001;" horiz-adv-x="1867" />
<glyph unicode="&#x2002;" horiz-adv-x="933" />
<glyph unicode="&#x2003;" horiz-adv-x="1867" />
<glyph unicode="&#x2004;" horiz-adv-x="622" />
<glyph unicode="&#x2005;" horiz-adv-x="466" />
<glyph unicode="&#x2006;" horiz-adv-x="311" />
<glyph unicode="&#x2007;" horiz-adv-x="311" />
<glyph unicode="&#x2008;" horiz-adv-x="233" />
<glyph unicode="&#x2009;" horiz-adv-x="372" />
<glyph unicode="&#x200a;" horiz-adv-x="102" />
<glyph unicode="&#x2010;" d="M158 666v180h655v-180h-655z" />
<glyph unicode="&#x2011;" d="M158 666v180h655v-180h-655z" />
<glyph unicode="&#x2012;" d="M158 666v180h655v-180h-655z" />
<glyph unicode="&#x2013;" horiz-adv-x="1024" d="M158 666v180h708v-180h-708z" />
<glyph unicode="&#x2014;" horiz-adv-x="2048" d="M158 666v180h1732v-180h-1732z" />
<glyph unicode="&#x2018;" horiz-adv-x="401" d="M90 1217q-2 123 135 243l121 -59q-98 -55 -141 -107l22 -6q53 -31 54 -90q-2 -41 -30 -67.5t-71 -24.5t-66.5 38t-23.5 73z" />
<glyph unicode="&#x2019;" horiz-adv-x="409" d="M70 1159q98 55 141 107l-23 6q-53 31 -53 90q2 41 30 67.5t71 24.5t66.5 -38t23.5 -73q2 -123 -136 -243z" />
<glyph unicode="&#x201a;" horiz-adv-x="432" d="M55 -113q98 55 142 107l-23 6q-53 31 -53 90q2 41 29.5 67.5t70.5 24.5t66.5 -37.5t23.5 -72.5q2 -123 -135 -244z" />
<glyph unicode="&#x201c;" horiz-adv-x="663" d="M90 1217q-2 123 135 243l121 -59q-98 -55 -141 -107l22 -6q53 -31 54 -90q-2 -41 -30 -67.5t-71 -24.5t-66.5 38t-23.5 73zM354 1217q-2 123 135 243l121 -59q-98 -55 -141 -107l23 -6q53 -31 53 -90q-2 -41 -30 -67.5t-71 -24.5t-66.5 38t-23.5 73z" />
<glyph unicode="&#x201d;" horiz-adv-x="677" d="M76 1163q98 55 141 107l-22 6q-53 31 -54 90q2 41 30 67.5t71 24.5t66.5 -38t23.5 -72q2 -123 -135 -244zM340 1163q98 55 141 107l-22 6q-53 31 -53 90q2 41 29.5 67.5t70.5 24.5t66.5 -38t23.5 -72q2 -123 -135 -244z" />
<glyph unicode="&#x201e;" horiz-adv-x="524" d="M57 -111q98 55 142 107l-23 6q-53 31 -53 90q2 41 29.5 67.5t70.5 24.5q23 -4 37 -12q23 12 53 12q43 -2 66.5 -37.5t23.5 -72.5q2 -123 -135 -244l-59 29q-10 -8 -31 -29z" />
<glyph unicode="&#x2022;" horiz-adv-x="972" d="M121 690.5q0 151.5 106.5 258t258 106.5t259 -106.5t107.5 -258t-107.5 -259t-259 -107.5t-258 107.5t-106.5 259z" />
<glyph unicode="&#x2026;" horiz-adv-x="1161" d="M121 90q0 39 27.5 65.5t64.5 26.5t63.5 -26.5t26.5 -65.5q0 -37 -26.5 -63.5t-63.5 -26.5t-64.5 26.5t-27.5 63.5zM489 90q0 39 28 65.5t64.5 26.5t63.5 -26.5t27 -65.5q0 -37 -27 -63.5t-63.5 -26.5t-64.5 26.5t-28 63.5zM858 90q0 39 27.5 65.5t64.5 26.5t63.5 -26.5 t26.5 -65.5q0 -37 -26.5 -63.5t-63.5 -26.5t-64.5 26.5t-27.5 63.5z" />
<glyph unicode="&#x202f;" horiz-adv-x="372" />
<glyph unicode="&#x2039;" horiz-adv-x="706" d="M82 547v2l383 383l123 -123l-266 -262l264 -268l-121 -115z" />
<glyph unicode="&#x203a;" horiz-adv-x="706" d="M119 809l123 123l383 -383v-2l-383 -383l-121 115l264 268z" />
<glyph unicode="&#x2044;" horiz-adv-x="962" d="M53 -233l664 1906h190l-653 -1906h-201z" />
<glyph unicode="&#x205f;" horiz-adv-x="466" />
<glyph unicode="&#x20ac;" horiz-adv-x="999" d="M82 444v181h121v98h-121v180h121v121q0 156 44 235.5t134 135.5q102 57 245.5 51t264.5 -68l-53 -159q-98 37 -211 36q-98 0 -168 -52t-70 -161v-139h348v-180h-348v-98h348v-181h-348v-73q0 -92 45 -143.5t123 -61.5t165 2t189 43l31 -172q-100 -39 -200.5 -56.5 t-199 -8t-173 49t-120.5 127t-46 216.5v77h-121z" />
<glyph unicode="&#x2122;" horiz-adv-x="948" d="M68 1339v95h473l80 -222l77 222h131v-385h-94v245l-82 -245h-63l-82 245v-245h-98v290h-115v-290h-98v290h-129z" />
<glyph unicode="&#xe000;" horiz-adv-x="1025" d="M0 1025h1025v-1025h-1025v1025z" />
<glyph unicode="&#xfb01;" horiz-adv-x="905" d="M127 0v1090q0 94 35 170.5t96 121.5t138 62.5t166 -3t173 -79.5l-141 -129q-47 41 -112.5 44t-116 -38t-50.5 -115v-98h199l-49 -176h-150v-850h-188zM594 0v1026h184v-1026h-184z" />
<glyph unicode="&#xfb02;" horiz-adv-x="905" d="M127 0v1090q0 227 171 316t480 -22v-1384h-188v1235q-49 39 -113.5 41t-113 -39t-48.5 -113v-98h199l-49 -176h-150v-850h-188z" />
<glyph unicode="&#xfb03;" horiz-adv-x="1501" d="M1182 1354q0 39 31.5 69.5t72.5 30.5t71 -30.5t30 -69.5q0 -41 -31 -73t-70 -32q-41 0 -72.5 32t-31.5 73zM1188 0v1026h186v-1026h-186zM657 0v1124q0 90 25.5 157t68.5 100.5t96 55.5q49 20 100 19h10q56 -2 108 -8l-31 -168q-24 5 -47 5q-46 0 -84 -22 q-57 -34 -58 -139v-98h199l-49 -176h-150v-850h-188zM127 0v1124q0 90 25.5 157t68.5 100.5t96 55.5q49 20 100 19h10q56 -2 108 -8l-31 -168q-24 5 -47 5q-46 0 -84 -22q-57 -34 -58 -139v-98h199l-49 -176h-150v-850h-188z" />
<glyph unicode="&#xfb04;" horiz-adv-x="1380" d="M127 0v1018q0 68 6 125q25 188 183.5 261t418.5 -15q70 47 174.5 54t185.5 -9.5t158 -42.5v-1391h-190v1237q-84 45 -175 8t-91 -135v-84h196q-16 -57 -49 -176h-147v-850h-191v1090q0 70 17 131q-57 35 -125 37t-125.5 -41t-57.5 -113v-78h199q-16 -57 -49 -176h-150 v-850h-188z" />
<glyph horiz-adv-x="569" />
</font>
</defs>
</svg>
